# xmcd
#
# Track frame offsets: 
#        150
#        14593
#        27884
#        40711
#        56356
#        65597
#        78185
#        93088
#        106581
#        117819
#        129679
#        145409
#        157244
#        171278
#        182603
#        193842
#
# Disc length: 2743 seconds
#
# Revision: 0
# Processed by: cddbd v1.5.2PL0 Copyright (c) Steve Scherf et al.
# Submitted via: ExactAudioCopy v0.95a5
#
DISCID=d20ab510
DTITLE=Various Artist - The Yellow Rose Of Texas - CD1
DYEAR=2010
DGENRE=Country
TTITLE0=Bobby Bare - Leaving on a jetplane
TTITLE1=George Kent - Mama bake a pie, Daddy kill a chicken
TTITLE2=Ronnie Rogers - Dan D. Derby
TTITLE3=Karen O'Donnel - I know what it's all about now, Mama
TTITLE4=Buddy Meredith - Coming back in style
TTITLE5=Tom Stewart - All the way 'cross Texas
TTITLE6=Dave Dudley - Deutschland Autobahn
TTITLE7=Thomas Frank - Home on the range
TTITLE8=Ferlin Huskey - The bridge I have never crossed
TTITLE9=Bobby Lord - Good old song
TTITLE10=Johnny Hill - Lucille
TTITLE11=Billy Grammer - Papa and Mama
TTITLE12=Barbara Perry - Why can't women have a good beer drinking son
TTITLE12=g
TTITLE13=David Price - The lonesome truck driver's waltz
TTITLE14=Freddy Quinn - Jambalaya
TTITLE15=Linda Manning - No thanks to you
EXTD=
EXTT0=
EXTT1=
EXTT2=
EXTT3=
EXTT4=
EXTT5=
EXTT6=
EXTT7=
EXTT8=
EXTT9=
EXTT10=
EXTT11=
EXTT12=
EXTT13=
EXTT14=
EXTT15=
PLAYORDER=
